<mxfile host="app.diagrams.net" modified="2022-07-18T05:46:18.684Z" agent="5.0 (Macintosh)" etag="baQuS10MAjLzKRos3qAY" version="20.1.1" type="github">
  <diagram id="hr8kCB_xXUHxk8EA3XqF" name="Page-1">
    <mxGraphModel dx="1186" dy="677" grid="1" gridSize="10" guides="1" tooltips="1" connect="1" arrows="1" fold="1" page="1" pageScale="1" pageWidth="850" pageHeight="1100" math="0" shadow="0">
      <root>
        <mxCell id="0" />
        <mxCell id="1" parent="0" />
        <mxCell id="3VifK8WGh7skRykXciJW-1" value="My greeting function &amp;amp;&lt;br&gt;User Interface Function&lt;br&gt;is start of program,&lt;br&gt;also I want every input saved for records." style="rounded=1;whiteSpace=wrap;html=1;" parent="1" vertex="1">
          <mxGeometry x="20" y="10" width="195" height="100" as="geometry" />
        </mxCell>
        <mxCell id="3VifK8WGh7skRykXciJW-2" value="" style="endArrow=classic;html=1;rounded=0;exitX=0.5;exitY=1;exitDx=0;exitDy=0;" parent="1" source="3VifK8WGh7skRykXciJW-1" edge="1">
          <mxGeometry width="50" height="50" relative="1" as="geometry">
            <mxPoint x="360" y="280" as="sourcePoint" />
            <mxPoint x="120" y="170" as="targetPoint" />
          </mxGeometry>
        </mxCell>
        <mxCell id="3VifK8WGh7skRykXciJW-3" value="Into the customerName function where&lt;br&gt;Using an exception catch we get just customer name&lt;br&gt;&amp;nbsp;and return some&amp;nbsp;&lt;br&gt;variables back into the main()" style="rounded=1;whiteSpace=wrap;html=1;" parent="1" vertex="1">
          <mxGeometry x="30" y="190" width="220" height="100" as="geometry" />
        </mxCell>
        <mxCell id="3VifK8WGh7skRykXciJW-4" value="" style="endArrow=classic;html=1;rounded=0;exitX=0.468;exitY=1.044;exitDx=0;exitDy=0;exitPerimeter=0;" parent="1" source="3VifK8WGh7skRykXciJW-3" edge="1">
          <mxGeometry width="50" height="50" relative="1" as="geometry">
            <mxPoint x="360" y="280" as="sourcePoint" />
            <mxPoint x="133" y="320" as="targetPoint" />
          </mxGeometry>
        </mxCell>
        <mxCell id="3VifK8WGh7skRykXciJW-5" value="Ask customer to enter an int to select what package they want,&lt;br&gt;the user will enter 1 2 or 3,&lt;br&gt;return the users entry to main()&amp;nbsp;" style="rounded=1;whiteSpace=wrap;html=1;" parent="1" vertex="1">
          <mxGeometry x="60" y="330" width="190" height="100" as="geometry" />
        </mxCell>
        <mxCell id="3VifK8WGh7skRykXciJW-7" value="" style="endArrow=classic;html=1;rounded=0;exitX=0.5;exitY=1;exitDx=0;exitDy=0;" parent="1" source="3VifK8WGh7skRykXciJW-5" edge="1">
          <mxGeometry width="50" height="50" relative="1" as="geometry">
            <mxPoint x="360" y="500" as="sourcePoint" />
            <mxPoint x="150" y="460" as="targetPoint" />
          </mxGeometry>
        </mxCell>
        <mxCell id="3VifK8WGh7skRykXciJW-8" value="when we know what package the user wants, the program will ask the &lt;br&gt;user -&lt;br&gt;&amp;nbsp;now the worker,&lt;br&gt;&lt;br&gt;for dimensions,&amp;nbsp;&lt;br&gt;compute, and return to main()" style="rounded=1;whiteSpace=wrap;html=1;" parent="1" vertex="1">
          <mxGeometry x="42.629999999999995" y="470" width="224.75" height="109" as="geometry" />
        </mxCell>
        <mxCell id="3VifK8WGh7skRykXciJW-9" value="" style="endArrow=classic;html=1;rounded=0;exitX=1;exitY=0.5;exitDx=0;exitDy=0;entryX=0;entryY=0.5;entryDx=0;entryDy=0;" parent="1" source="3VifK8WGh7skRykXciJW-8" edge="1" target="3VifK8WGh7skRykXciJW-10">
          <mxGeometry width="50" height="50" relative="1" as="geometry">
            <mxPoint x="360" y="630" as="sourcePoint" />
            <mxPoint x="398" y="640" as="targetPoint" />
          </mxGeometry>
        </mxCell>
        <mxCell id="3VifK8WGh7skRykXciJW-10" value="Finally, we will print the returned data back to console.&amp;nbsp;" style="rounded=1;whiteSpace=wrap;html=1;" parent="1" vertex="1">
          <mxGeometry x="450" y="460" width="330" height="90" as="geometry" />
        </mxCell>
      </root>
    </mxGraphModel>
  </diagram>
</mxfile>
